<svg xmlns="http://www.w3.org/2000/svg" width="264" height="63" viewBox="0 0 264 63" fill="none"><path d="M76.2735 42.8677H72.7864V40.8039H82.2816V42.8677H78.7944V51.7513H76.2735V42.8677Z" fill="#2B5F2E"/><path d="M92.6763 51.7513L90.5736 48.7021H88.2526V51.7513H85.7316V40.8039H90.4478C93.3574 40.8039 95.1787 42.3211 95.1787 44.7753C95.1787 46.4189 94.3532 47.62 92.9354 48.2299L95.3786 51.7476H92.6688L92.6763 51.7513ZM90.3071 42.8677H88.2526V46.6829H90.3071C91.847 46.6829 92.6281 45.9653 92.6281 44.7753C92.6281 43.5854 91.8507 42.8677 90.3071 42.8677Z" fill="#2B5F2E"/><path d="M107.817 49.7173V51.7513H99.3802V40.8039H107.617V42.8379H101.886V45.2141H106.947V47.1849H101.886V49.7173H107.817Z" fill="#2B5F2E"/><path d="M120.544 49.7173V51.7513H112.107V40.8039H120.344V42.8379H114.613V45.2141H119.674V47.1849H114.613V49.7173H120.544Z" fill="#2B5F2E"/><path d="M130.909 46.2776C130.909 42.9792 133.43 40.618 136.824 40.618C138.708 40.618 140.282 41.3059 141.307 42.5553L139.689 44.0576C138.956 43.2135 138.038 42.7747 136.95 42.7747C134.91 42.7747 133.463 44.2138 133.463 46.2776C133.463 48.3414 134.91 49.7805 136.95 49.7805C138.038 49.7805 138.956 49.3417 139.689 48.4827L141.307 49.985C140.278 51.2531 138.708 51.941 136.809 51.941C133.43 51.941 130.909 49.5797 130.909 46.2813V46.2776Z" fill="#2B5F2E"/><path d="M152.498 49.4049H147.437L146.471 51.7513H143.887L148.744 40.8039H151.235L156.107 51.7513H153.46L152.494 49.4049H152.498ZM151.705 47.4824L149.977 43.2916L148.248 47.4824H151.705Z" fill="#2B5F2E"/><path d="M166.409 51.7513L164.306 48.7021H161.985V51.7513H159.464V40.8039H164.181C167.09 40.8039 168.911 42.3211 168.911 44.7753C168.911 46.4189 168.086 47.62 166.668 48.2299L169.111 51.7476H166.402L166.409 51.7513ZM164.044 42.8677H161.989V46.6829H164.044C165.584 46.6829 166.365 45.9653 166.365 44.7753C166.365 43.5854 165.587 42.8677 164.044 42.8677Z" fill="#2B5F2E"/><path d="M181.549 49.7173V51.7513H173.113V40.8039H181.35V42.8379H175.619V45.2141H180.68V47.1849H175.619V49.7173H181.549Z" fill="#2B5F2E"/><path d="M83.1108 31.5C81.5708 31.5 80.227 31.2844 79.0832 30.8493C77.9393 30.4179 77.0472 29.73 76.4068 28.7892C75.7701 27.8484 75.448 26.6064 75.448 25.0632V14.2794C75.448 13.7699 75.3555 13.3943 75.1667 13.1489C74.9779 12.9035 74.7336 12.7436 74.4337 12.6692C74.1339 12.5949 73.797 12.5577 73.4194 12.5577H72.8012V11.0628H82.5481V12.5577H81.9003C81.5449 12.5577 81.2154 12.5986 80.9156 12.6841C80.6157 12.7696 80.3714 12.937 80.1826 13.1935C79.9938 13.4464 79.9013 13.848 79.9013 14.3946V25.29C79.9013 26.8704 80.2826 27.9674 81.0414 28.5772C81.8003 29.1908 82.8183 29.4957 84.0954 29.4957C84.9395 29.4957 85.6687 29.3358 86.2795 29.016C86.8903 28.6962 87.3604 28.2165 87.6862 27.577C88.0157 26.9374 88.1785 26.1379 88.1785 25.1785V14.2831C88.1785 13.7736 88.0897 13.3981 87.912 13.1526C87.7343 12.9072 87.4974 12.7473 87.2087 12.6729C86.9162 12.5986 86.5831 12.5614 86.2092 12.5614H85.591V11.0665H92.9687V12.5614H92.3209C91.9433 12.5614 91.6027 12.6023 91.2918 12.6878C90.9808 12.7733 90.7365 12.9407 90.5588 13.1973C90.3811 13.4501 90.2923 13.8517 90.2923 14.3984V25.238C90.2923 26.4986 90.0406 27.5993 89.5334 28.5401C89.0263 29.4809 88.2415 30.2097 87.1828 30.7266C86.1203 31.2435 84.7655 31.5038 83.1145 31.5038L83.1108 31.5Z" fill="#2B5F2E"/><path d="M94.6308 31.2174V29.7226H95.3342C95.708 29.7226 96.0412 29.6817 96.3336 29.5961C96.6261 29.5106 96.8482 29.3358 97.0111 29.0755C97.1703 28.8115 97.2517 28.4173 97.2517 27.8893V14.2831C97.2517 13.7736 97.1703 13.3981 97.0111 13.1526C96.8519 12.9072 96.6335 12.7473 96.3633 12.6729C96.0893 12.5986 95.7932 12.5614 95.4748 12.5614H94.6308V11.0665H100.913L110.826 25.1227V14.2831C110.826 13.8145 110.745 13.4538 110.586 13.2121C110.426 12.9667 110.215 12.7994 109.953 12.7027C109.69 12.6097 109.397 12.5614 109.079 12.5614H108.235V11.0665H115.587V12.5614H114.713C114.376 12.5614 114.069 12.6134 113.799 12.7176C113.525 12.8217 113.314 13.0039 113.166 13.2679C113.014 13.5319 112.94 13.9075 112.94 14.3984V31.2211H110.349L99.3654 15.6664V27.8893C99.3654 28.4173 99.4358 28.8115 99.5764 29.0755C99.7171 29.3396 99.917 29.5143 100.184 29.5961C100.446 29.6817 100.765 29.7226 101.142 29.7226H101.986V31.2174H94.6308Z" fill="#2B5F2E"/><path d="M117.242 31.2174V29.7226H118.256C118.574 29.7226 118.852 29.6631 119.089 29.5404C119.322 29.4176 119.511 29.228 119.651 28.9751C119.792 28.7223 119.862 28.3876 119.862 27.9748V14.2571C119.862 13.8071 119.788 13.4613 119.637 13.227C119.485 12.9927 119.281 12.8217 119.018 12.7176C118.756 12.6134 118.463 12.5614 118.145 12.5614H117.245V11.0665H126.566C128.632 11.0665 130.413 11.4272 131.904 12.1523C133.396 12.8775 134.536 13.9596 135.325 15.3987C136.113 16.8377 136.509 18.6301 136.509 20.7757C136.509 22.9213 136.132 24.6393 135.384 26.2085C134.633 27.7815 133.522 29.0086 132.045 29.8936C130.572 30.7786 128.743 31.2211 126.566 31.2211H117.245L117.242 31.2174ZM125.885 29.466C127.181 29.466 128.262 29.1127 129.124 28.4062C129.987 27.6997 130.642 26.6994 131.083 25.4016C131.523 24.1038 131.745 22.5606 131.745 20.772C131.745 18.9833 131.523 17.4736 131.083 16.2985C130.642 15.1235 129.987 14.2422 129.124 13.6584C128.262 13.0745 127.192 12.7845 125.915 12.7845H124.308V29.466H125.885Z" fill="#2B5F2E"/><path d="M137.724 31.2174V29.7226H138.708C139.045 29.7226 139.338 29.6705 139.582 29.5664C139.826 29.4623 140.015 29.2949 140.145 29.0569C140.274 28.8227 140.341 28.5066 140.341 28.1124V14.3091C140.341 13.7811 140.267 13.3981 140.115 13.1526C139.963 12.9072 139.763 12.7473 139.508 12.6729C139.256 12.5986 138.979 12.5614 138.675 12.5614H137.716V11.0665H153.375L153.486 16.2614H151.513L151.372 14.9338C151.335 14.4653 151.239 14.0711 151.091 13.7625C150.939 13.4538 150.717 13.2121 150.413 13.0411C150.114 12.87 149.718 12.7882 149.229 12.7882H144.779V19.8461H151.483V21.538H144.779V29.4994H149.991C150.48 29.4994 150.88 29.4065 151.187 29.2168C151.498 29.0272 151.742 28.7743 151.92 28.4545C152.098 28.1347 152.216 27.7666 152.272 27.3538L152.468 26.0263H154.441L154.245 31.2211H137.713L137.724 31.2174Z" fill="#2B5F2E"/><path d="M156.24 31.2174V29.7226H157.029C157.328 29.7226 157.621 29.6854 157.902 29.611C158.184 29.5366 158.413 29.3767 158.591 29.1313C158.768 28.8859 158.857 28.5215 158.857 28.0306V14.2831C158.857 13.7736 158.765 13.3981 158.576 13.1526C158.387 12.9072 158.154 12.7473 157.873 12.6729C157.591 12.5986 157.31 12.5614 157.029 12.5614H156.24V11.0665H165.339C167.235 11.0665 168.767 11.2785 169.929 11.7024C171.092 12.1263 171.943 12.7362 172.48 13.5357C173.017 14.3351 173.283 15.3094 173.283 16.4584C173.283 17.4922 173.091 18.3586 172.706 19.054C172.321 19.7494 171.825 20.296 171.214 20.6902C170.603 21.0843 169.941 21.3967 169.23 21.6235L172.721 27.3538C173.209 28.1645 173.653 28.7595 174.057 29.1462C174.46 29.5329 174.916 29.7263 175.423 29.7263H175.593V31.2211H174.664C173.539 31.2211 172.591 31.1542 171.821 31.0241C171.051 30.8939 170.403 30.6448 169.878 30.2766C169.352 29.9085 168.893 29.3767 168.497 28.6814L165.173 22.4714H163.34V28.0306C163.34 28.5215 163.414 28.8859 163.566 29.1313C163.718 29.3767 163.929 29.5366 164.199 29.611C164.473 29.6854 164.777 29.7226 165.113 29.7226H165.65V31.2174H156.24ZM164.888 20.8278C166.239 20.8278 167.186 20.4782 167.731 19.7828C168.275 19.0875 168.549 18.05 168.549 16.6778C168.549 15.7184 168.415 14.9524 168.153 14.376C167.89 13.8034 167.486 13.3832 166.942 13.1192C166.398 12.8552 165.695 12.725 164.828 12.725H163.337V20.8278H164.888Z" fill="#2B5F2E"/><path d="M183.615 31.2174V29.7226H184.629C184.911 29.7226 185.174 29.6705 185.418 29.5664C185.662 29.4623 185.858 29.2949 186.01 29.0569C186.162 28.8227 186.236 28.4954 186.236 28.0827V14.2496C186.236 13.8183 186.162 13.4799 186.01 13.2344C185.858 12.989 185.655 12.8142 185.392 12.7138C185.129 12.6097 184.837 12.5577 184.518 12.5577H183.619V11.0628H193.366V12.5577H192.407C192.029 12.5577 191.722 12.606 191.478 12.699C191.233 12.7919 191.045 12.9593 190.915 13.1935C190.782 13.4278 190.719 13.755 190.719 14.1678V29.4957H195.957C196.39 29.4957 196.76 29.4028 197.067 29.2131C197.378 29.0235 197.63 28.7446 197.826 28.3653C198.023 27.9897 198.178 27.5472 198.289 27.0378L198.767 24.9219H200.344L200.147 31.2174H183.615Z" fill="#2B5F2E"/><path d="M203.871 31.2174V29.7226H204.715C205.13 29.7226 205.493 29.6742 205.815 29.5813C206.133 29.4883 206.381 29.3024 206.563 29.0309C206.74 28.7595 206.829 28.3578 206.829 27.8298V23.9067L201.617 14.0562C201.428 13.6807 201.254 13.3832 201.095 13.1675C200.936 12.9518 200.743 12.7957 200.518 12.7027C200.292 12.6097 199.992 12.5614 199.618 12.5614H199.252V11.0665H208.713V12.5614H208.206C207.644 12.5614 207.222 12.6804 206.94 12.9146C206.659 13.1489 206.518 13.4576 206.518 13.8331C206.518 14.0786 206.559 14.3351 206.644 14.6103C206.729 14.8818 206.837 15.1421 206.97 15.3875L209.054 19.3961C209.335 19.9241 209.565 20.4113 209.742 20.8649C209.92 21.3149 210.083 21.7574 210.235 22.1925C210.424 21.7239 210.657 21.1996 210.938 20.627C211.22 20.0543 211.512 19.4668 211.812 18.8644L213.444 15.6478C213.633 15.235 213.759 14.8855 213.826 14.6029C213.892 14.3203 213.926 14.1046 213.926 13.9521C213.926 13.4613 213.77 13.1117 213.459 12.8923C213.148 12.6767 212.685 12.5688 212.064 12.5688H211.416V11.074H218.793V12.5688H218.457C218.138 12.5688 217.861 12.632 217.627 12.751C217.394 12.8737 217.161 13.0931 216.939 13.4129C216.713 13.7327 216.45 14.1752 216.15 14.7405L211.334 23.9699V27.8075C211.334 28.3541 211.419 28.7632 211.586 29.0346C211.756 29.3061 211.986 29.492 212.275 29.585C212.567 29.6779 212.882 29.7263 213.218 29.7263H214.288V31.2211H203.868L203.871 31.2174Z" fill="#2B5F2E"/><path d="M220.241 31.2174V29.7226H220.944C221.318 29.7226 221.651 29.6742 221.944 29.5813C222.236 29.4883 222.458 29.3135 222.621 29.0607C222.78 28.8078 222.862 28.462 222.862 28.0306V14.2571C222.862 13.8257 222.78 13.4873 222.621 13.2419C222.462 12.9965 222.258 12.8217 222.014 12.7213C221.77 12.6172 221.496 12.5651 221.196 12.5651H220.237V11.0702H228.348L233.023 24.6765L237.502 11.0702H245.472V12.5651H244.458C244.195 12.5651 243.94 12.6172 243.699 12.7213C243.455 12.8254 243.259 12.989 243.107 13.2159C242.955 13.4427 242.881 13.7699 242.881 14.205V28.0938C242.881 28.5066 242.951 28.8338 243.092 29.0681C243.233 29.3024 243.433 29.4734 243.699 29.5775C243.962 29.6817 244.273 29.7337 244.628 29.7337H245.472V31.2286H236.459V29.7337H236.74C237.136 29.7337 237.462 29.6817 237.725 29.5775C237.987 29.4734 238.184 29.2949 238.317 29.0421C238.446 28.7892 238.513 28.4359 238.513 27.9823V13.8666L232.823 31.2286H230.909L224.968 13.8666V27.8967C224.968 28.4248 225.053 28.819 225.22 29.083C225.39 29.347 225.627 29.5218 225.938 29.6036C226.249 29.6891 226.619 29.73 227.048 29.73H227.245V31.2249H220.233L220.241 31.2174Z" fill="#2B5F2E"/><path d="M247.283 31.2174V29.7226H248.267C248.604 29.7226 248.897 29.6705 249.141 29.5664C249.385 29.4623 249.574 29.2949 249.704 29.0569C249.833 28.8227 249.9 28.5066 249.9 28.1124V14.3091C249.9 13.7811 249.826 13.3981 249.674 13.1526C249.522 12.9072 249.322 12.7473 249.067 12.6729C248.815 12.5986 248.538 12.5614 248.234 12.5614H247.275V11.0665H262.934L263.045 16.2614H261.072L260.931 14.9338C260.894 14.4653 260.798 14.0711 260.65 13.7625C260.498 13.4538 260.276 13.2121 259.972 13.0411C259.673 12.87 259.277 12.7882 258.788 12.7882H254.338V19.8461H261.042V21.538H254.338V29.4994H259.55C260.039 29.4994 260.439 29.4065 260.746 29.2168C261.057 29.0272 261.301 28.7743 261.479 28.4545C261.657 28.1347 261.775 27.7666 261.831 27.3538L262.027 26.0263H264L263.804 31.2211H247.271L247.283 31.2174Z" fill="#2B5F2E"/><path d="M45.8816 60.9176C45.7928 60.4602 44.2195 59.9359 43.3607 59.8132L38.1152 59.0658L36.1162 58.7943L32.7957 58.1845C32.3959 58.1101 32.1701 58.1436 31.7444 57.913C31.215 57.6267 30.334 57.5486 30.0193 56.8718C29.6602 56.0946 31.3927 55.0348 32.4921 54.4994C33.8396 53.8412 36.2939 52.5248 36.3383 51.3609C36.3679 50.5428 35.0575 49.8363 34.0765 49.602L31.2076 48.9141C27.7279 48.3489 24.2852 48.1257 20.7759 48.0365L18.1994 47.9696H7.90097L6.98292 47.977C6.86076 47.977 6.64235 47.9287 6.5387 47.9882C6.26106 47.9658 5.939 47.9063 5.728 48.0886L4.23247 48.1518C3.01087 48.1295 0.16047 48.3042 0.0160987 48.7281C-0.157887 49.245 1.11554 49.4867 2.04099 49.6243C7.29387 50.4201 12.4394 50.3643 17.6256 51.1712C18.962 51.3795 21.3126 52.0042 21.5607 52.8669C21.7347 53.473 20.1244 54.3209 19.1286 54.663L15.4786 55.9273C14.0053 56.4367 11.9656 57.4482 12.6652 58.7013C13.0132 59.3186 13.6055 59.5938 14.1978 59.9322C15.7932 60.8469 17.5294 61.2709 19.3544 61.639C23.456 62.4682 27.5613 62.8847 31.6999 63H37.1934C38.9555 62.9963 40.7139 62.8104 42.5018 62.5166C43.6531 62.3269 44.7155 62.0592 45.7187 61.468C45.8964 61.3638 45.9223 61.1073 45.8853 60.9176H45.8816Z" fill="#3C7894"/><path d="M41.2469 56.2508C39.2331 56.6673 33.7656 57.4519 33.9284 55.8901C34.0062 55.1464 36.5604 54.3469 38.0449 52.4132C38.689 51.5728 38.6371 50.5279 37.9079 49.747C36.2014 47.9138 32.0516 47.1626 29.3974 46.9544C26.2472 46.7052 23.208 46.6606 20.0281 46.7424C13.7683 46.9023 7.63814 47.3077 1.37096 47.8431C2.252 47.2296 3.19226 46.8391 4.22877 46.4747C7.91207 45.1769 11.662 44.4035 15.5304 43.8159C17.6553 43.4924 19.6505 43.0759 21.6495 42.3768C22.3936 42.1165 22.9081 41.6926 23.2783 40.9861C24.4703 38.7103 25.0404 34.9434 23.4449 33.1585C21.9049 31.4368 17.9884 30.7377 15.597 30.5704C15.8451 31.4443 15.7377 32.2921 15.3009 32.9652C14.6531 33.9692 13.5462 34.0101 12.6319 33.4709C12.1284 33.932 11.4695 34.3299 10.7403 34.1439C10.1369 33.9878 9.48164 33.5899 9.33357 32.7569C8.81531 33.1399 8.22673 33.337 7.54929 33.2403C6.56461 33.099 5.91309 32.3256 5.84646 31.2955C5.20975 31.3625 4.63967 31.2583 4.23987 30.8902C3.79565 30.4811 3.67349 29.8973 3.79195 29.2243C2.48521 29.3284 1.47832 28.7297 1.38207 27.5509C1.33395 26.9522 1.58567 26.4056 2.07061 25.9817C1.50423 25 1.89292 23.8138 2.90722 23.3155C3.32552 23.111 3.73642 23.0366 4.27319 23.0217C4.25838 22.2817 4.7063 21.9173 5.3171 21.5863C4.62116 21.4413 4.23987 21.0211 4.07699 20.5526C3.86599 19.9427 4.04367 19.4482 4.43607 18.9127C3.78825 18.4962 3.52912 17.8455 3.62167 17.1613C3.78455 15.9713 5.22826 15.8003 5.38373 15.5957C5.54291 15.3838 5.34671 14.6698 5.95381 14.1455C6.30919 13.8369 6.60903 13.9075 7.06436 13.9001C7.24945 13.9001 7.47526 13.6695 7.81582 13.8443C7.40122 13.1266 7.69366 12.4387 8.31557 12.0817C8.65243 11.8883 8.97079 11.7619 9.3854 11.8809C9.34468 11.1558 9.63712 10.6389 10.0517 10.2001C10.507 9.71668 11.1512 9.67206 11.7694 9.739C11.9656 9.37458 12.4024 8.92091 12.9021 8.91347C12.7689 8.19951 12.7133 7.45952 13.1761 6.90917C14.1533 5.74526 15.3638 6.5559 15.5785 6.04274C16.0376 4.94577 17.1481 4.49954 18.3253 4.94948C18.192 4.1723 18.44 3.62568 19.0471 3.3096C20.0836 2.77041 21.0942 3.75583 21.1868 3.44347C21.3941 2.73322 21.9383 2.73694 22.4824 2.61794C22.8526 1.4875 23.7744 1.42057 25.0848 1.59906C25.6882 0.542985 26.6396 -0.00736274 27.7982 7.43867e-05C28.757 0.00379295 29.4974 0.431428 30.1082 1.1268C30.8041 0.73635 31.5963 0.524392 32.4403 0.807003C33.1177 1.03384 33.673 1.74408 34.0395 2.42458C34.7799 2.3093 35.7386 2.11966 36.4642 2.74066C36.8936 3.10508 37.2527 3.52899 37.1971 4.18718C38.6408 3.88597 39.7107 3.99753 40.2808 5.41059C41.8429 5.22094 43.1274 6.12455 43.4495 7.69007C44.1528 7.8574 44.8636 7.96152 45.3967 8.46725C46.2592 9.28161 46.411 10.531 45.9741 11.6503C46.5775 11.6132 47.1402 11.8065 47.4179 12.2416C47.7214 12.725 47.6992 13.4018 47.2254 13.8294C47.5326 13.9968 47.7029 14.0972 47.9398 14.324C48.3026 14.0191 48.8023 14.0972 49.1503 14.1009C50.1794 14.1195 50.3275 14.9673 50.6903 15.6069C51.1789 16.1052 52.1081 16.3655 52.3228 17.2654C52.4597 17.8306 52.4671 18.3995 51.96 18.9015C53.1594 19.3701 53.9775 20.1993 54.1589 21.3669C54.2773 22.133 54.07 22.8432 53.2815 23.1816C53.8257 23.8547 53.6739 24.7248 53.0668 25.3123C52.5041 25.859 51.7675 26.1007 50.9716 26.1788L50.9087 27.101C51.9896 27.4059 52.5856 28.4806 52.1043 29.5255C51.9452 29.8676 51.5861 30.0572 51.264 30.2766C51.4491 31.2137 50.9494 32.0392 50.0498 32.2586C49.3872 32.4222 48.7283 32.3181 48.1804 31.857C48.1619 32.3813 47.9731 32.7383 47.64 33.0023C46.9847 33.5192 46.1222 33.337 45.4596 32.7123C44.9932 33.6196 44.1973 34.0138 43.3347 34.0249C42.4722 34.0361 41.7319 33.4263 41.258 32.716C40.6028 32.9689 39.744 33.1883 39.111 32.6007C38.6001 32.1248 38.5964 31.4405 38.8333 30.8047C38.0597 30.2989 36.9417 30.4737 36.1014 30.76L33.7137 31.5781C33.3176 31.712 33.1214 31.883 32.8031 32.0615C30.8892 33.1362 29.7491 34.9286 29.7306 37.1708C29.7084 39.8668 30.5524 42.7375 33.3917 43.0648C35.6165 43.3214 37.819 43.4515 40.0068 44.0093C40.2326 44.0651 40.3992 44.0762 40.625 44.1208C43.5421 44.6749 46.3591 45.4335 49.1725 46.404C50.8013 46.9655 52.3487 47.5047 53.8442 48.3637C54.5735 48.7839 55.3805 49.2004 55.8395 49.933C55.8802 50.3123 55.4101 50.8068 55.1176 51.0299C52.0821 53.3317 45.1671 55.4402 41.2469 56.2508ZM25.0145 11.4012L24.9367 11.4867L24.9997 11.5499L25.1144 11.4533L25.0182 11.4012H25.0145ZM25.144 11.483L25.0478 11.5983L25.1107 11.6652L25.2292 11.5648L25.144 11.483ZM25.2366 11.5983C25.2292 11.6429 25.2107 11.6912 25.1847 11.7321C25.5697 12.2713 25.9658 12.7548 26.336 13.4278L26.436 11.7731C25.9732 11.7991 25.6031 11.7507 25.2403 11.5983H25.2366ZM28.1906 13.2159C28.1351 13.0745 27.9278 12.9332 27.8389 12.8328L27.6687 14.5285C27.6576 14.6401 27.7057 14.7367 27.7501 14.7702C27.7945 14.8 27.9315 14.7665 27.95 14.6624L28.1906 13.2196V13.2159ZM20.2576 15.54C20.4797 14.7739 19.98 14.4244 19.7172 13.8517C19.5765 14.4616 19.8208 15.09 20.2576 15.54ZM35.8941 14.3277C35.8275 14.3575 35.3573 15.3503 35.2093 16.0494C36.3013 15.6255 36.2532 14.1678 35.8941 14.3277ZM26.7543 24.6616L27.354 21.3C27.0838 20.0097 25.7548 21.0025 25.4772 19.385C25.0996 19.768 24.8109 19.7977 24.3518 19.7642C24.4814 21.9285 25.2662 23.2969 26.7506 24.6616H26.7543ZM42.2205 19.9799C41.7356 19.913 41.5209 19.8498 41.1914 19.6899L40.7583 20.4708C41.3321 20.27 41.8318 20.2923 42.2205 19.9799ZM14.9159 20.9802C14.7308 20.5414 14.4125 20.0543 13.9868 19.939C13.6943 20.0766 13.3611 20.3072 13.0317 20.322L14.9159 20.9802ZM22.8526 20.7571L22.8896 20.0208L21.7087 20.1956L22.8526 20.7608V20.7571ZM31.6703 20.7274C31.2631 20.9728 31.1817 21.1401 30.8707 21.1699C30.371 21.2256 29.9305 21.0248 29.5566 20.7088C29.353 22.2929 29.2567 23.7468 29.1827 25.3756L29.8231 24.8141C30.693 23.546 31.2779 22.1367 31.6703 20.7236V20.7274ZM34.1209 23.111C34.3134 22.9994 34.4319 22.7354 34.3171 22.6052C33.7248 22.5941 33.2251 22.2966 32.9623 21.6458C32.4847 22.4044 32.5551 23.1333 32.4884 24.0443L34.1209 23.111ZM13.835 22.3003L12.3468 21.9396C12.4912 22.3896 12.8614 22.7986 13.2686 22.8618C13.3537 22.6573 13.4944 22.278 13.835 22.3003ZM24.9293 29.228C24.9589 28.1459 24.7331 27.3166 24.4481 26.4093C23.6892 24.6876 22.7082 23.0738 21.3052 21.75C21.1202 22.0809 21.4274 22.2408 21.5236 22.4342C21.8679 23.137 21.6976 23.8547 21.0239 24.2972C21.4348 24.9963 21.3497 25.7623 20.6426 26.2755C22.053 27.3761 23.4264 28.3653 24.9293 29.228ZM32.4366 29.1202C33.2954 28.5326 33.9136 27.8038 34.4393 26.9448C33.6693 26.77 33.3472 26.0932 33.536 25.2789C31.5186 26.3126 29.7195 28.7185 29.7639 30.9534L32.4403 29.1202H32.4366ZM42.6721 27.4356L41.5246 26.8258C41.5024 27.2274 41.3728 27.4914 41.1766 27.9488C41.7245 27.9934 42.2834 27.8447 42.6721 27.4356ZM16.5669 28.5066C15.9857 28.1756 15.6007 28.0009 15.2787 27.6179C15.0603 27.7889 14.9085 27.8447 14.7826 28.1236C15.449 28.2872 15.9931 28.488 16.5632 28.5066H16.5669ZM20.6389 29.8825C20.9017 30.0795 21.1831 30.2357 21.5829 30.0424C20.7981 29.1982 19.9874 28.5103 19.1323 27.7889C18.7103 27.9711 18.3919 27.8707 17.87 28.0232L19.8467 29.6408L20.6389 29.8787V29.8825ZM37.286 28.7483C37.0046 28.4322 36.9565 28.1645 36.8862 27.7778L35.672 29.1313L37.286 28.752V28.7483Z" fill="#2C612F"/></svg>